<svg xmlns="http://www.w3.org/2000/svg" width="512" height="512" viewBox="0 0 512 512">
  <defs>
    <linearGradient id="g" x1="0" x2="1" y1="0" y2="1">
      <stop offset="0%" stop-color="#0ff2c2"/>
      <stop offset="50%" stop-color="#4cc7ff"/>
      <stop offset="100%" stop-color="#7a5bff"/>
    </linearGradient>
  </defs>

  <!-- mark: stylized S + upward trade stroke -->
  <g transform="translate(56 56) scale(0.78)">
    <path fill="url(#g)" d="M128 16c-44 0-80 36-80 80 0 39 27 72 64 79v.6c-20 6-36 24-36 46 0 28 23 52 52 52 28 0 52-24 52-52 0-11-3-22-9-31 12-7 20-20 20-35 0-24-20-44-44-44h-60c-6 0-12-6-12-12s6-12 12-12h60c39 0 72 33 72 72 0 18-6 33-17 45 9 11 14 25 14 40 0 40-32 72-72 72s-72-32-72-72c0-18 7-34 20-46-22-3-40-22-40-45C64 68 96 36 136 36s72 32 72 72c0 20-8 38-21 51 11 12 21 25 30 39 16-17 27-39 27-63 0-55-45-100-100-100z"/>

    <!-- upward arrow trade stroke -->
    <polyline points="32,320 160,160 304,208" fill="none" stroke="#ffffff" stroke-width="20" stroke-linecap="round" stroke-linejoin="round" opacity="0.9"/>
    <polygon points="294,198 310,162 286,178" fill="#ffffff" opacity="0.95"/>
  </g>

  <!-- text (use generic sans-serif to avoid font parsing issues) -->
  <text x="48" y="440" fill="#0b1020" font-family="sans-serif" font-weight="700" font-size="48">Searix <tspan fill="#162038">Trade</tspan></text>
</svg>
